<svg width="24" height="24" viewBox="0 0 24 24" fill="none" xmlns="http://www.w3.org/2000/svg">
<path d="M13.4144 12.0001L18.0002 16.5859C18.3907 16.9764 18.3907 17.6096 18.0002 18.0001C17.6096 18.3906 16.9765 18.3906 16.5859 18.0001L11.1957 12.6098C10.8589 12.2731 10.8589 11.7271 11.1957 11.3903L16.5859 6.00007C16.9765 5.60955 17.6096 5.60955 18.0002 6.00008C18.3907 6.3906 18.3907 7.02376 18.0002 7.41429L13.4144 12.0001Z" fill="#1A1B22"/>
<path d="M10.8786 12.0001L6.29282 16.5859C5.90229 16.9764 5.90229 17.6096 6.29282 18.0001C6.68334 18.3906 7.31651 18.3906 7.70703 18.0001L13.0973 12.6098C13.434 12.2731 13.434 11.7271 13.0973 11.3903L7.70703 6.00007C7.31651 5.60955 6.68334 5.60955 6.29282 6.00008C5.90229 6.3906 5.90229 7.02376 6.29282 7.41429L10.8786 12.0001Z" fill="#1A1B22"/>
</svg>
