<svg width="160" height="28" viewBox="0 0 160 28" fill="none" xmlns="http://www.w3.org/2000/svg">
<path d="M31.8649 3.26147V22.8373H35.273V5.90914H41.357V22.8373H44.7652V3.26147H31.8649Z" fill="black"/>
<path d="M50.6694 8.66948H47.5711V26.9215H50.9229V21.1755C51.7679 22.443 53.0073 23.119 54.4438 23.119C57.7111 23.119 59.9644 20.4995 59.9644 15.7393C59.9644 11.0073 57.7674 8.38781 54.6128 8.38781C53.0354 8.38781 51.7398 9.12014 50.8384 10.5003L50.6694 8.66948ZM53.5988 20.4713C51.8243 20.4713 50.9229 19.0348 50.9229 15.7675C50.9229 12.472 51.8806 11.0355 53.7678 11.0355C55.5986 11.0355 56.4999 12.472 56.4999 15.7393C56.4999 19.0348 55.5423 20.4713 53.5988 20.4713Z" fill="black"/>
<path d="M72.6577 13.1761C72.6577 9.73981 70.9114 8.44414 67.3624 8.44414C65.1372 8.44414 63.3909 9.14831 62.3769 9.73981V12.5283C63.2782 11.8523 65.2498 11.12 66.968 11.12C68.5735 11.12 69.3059 11.6833 69.3059 13.2043V13.993H68.7707C63.6444 13.993 61.3629 15.683 61.3629 18.556C61.3629 21.429 63.1092 23.0345 65.7005 23.0345C67.6722 23.0345 68.5172 22.3866 69.165 21.7106H69.3059C69.334 22.0768 69.4467 22.5556 69.5593 22.8373H72.8267C72.714 21.6825 72.6577 20.5276 72.6577 19.3728V13.1761ZM69.3059 19.4573C68.8834 20.077 68.0947 20.584 66.9117 20.584C65.5033 20.584 64.7992 19.7953 64.7992 18.5841C64.7992 16.9786 65.954 16.3871 68.827 16.3871H69.3059V19.4573Z" fill="black"/>
<path d="M83.6618 22.8373H87.4643L82.0845 15.3168L86.8165 8.66948H83.4365L78.7045 15.3168V8.66948H75.3527V22.8373H78.7045V15.9928L83.6618 22.8373Z" fill="black"/>
<path d="M98.7017 11.3171V8.66948H87.4632V11.3171H91.4066V22.8373H94.7584V11.3171H98.7017Z" fill="black"/>
<path d="M100.686 8.66948V22.8373H103.672L108.798 14.0775V22.8373H112.037V8.66948H109.052L103.925 17.4293V8.66948H100.686Z" fill="black"/>
<path d="M123.161 22.8373H126.964L121.584 15.3168L126.316 8.66948H122.936L118.204 15.3168V8.66948H114.852V22.8373H118.204V15.9928L123.161 22.8373Z" fill="black"/>
<path d="M129.913 27.2031C133.039 27.2031 134.194 24.978 135.152 22.0768L139.574 8.66948H136.335L133.208 19.3165L130.082 8.66948H126.561L131.434 23.457C131.068 24.133 130.532 24.5555 129.603 24.5555C128.983 24.5555 128.448 24.3583 128.082 23.9921V26.7243C128.082 26.7243 128.589 27.2031 129.913 27.2031Z" fill="black"/>
<path d="M152.929 22.8373H156.196L156.14 8.66948H151.549L148.479 18.1053L145.718 8.66948H140.846V22.8373H143.69V12.2466L146.761 22.8373H149.493L152.929 12.2466V22.8373Z" fill="black"/>
<path fill-rule="evenodd" clip-rule="evenodd" d="M13.4282 26C20.6079 26 26.4282 20.1797 26.4282 13C26.4282 5.8203 20.6079 0 13.4282 0C6.24852 0 0.428223 5.8203 0.428223 13C0.428223 20.1797 6.24852 26 13.4282 26ZM13.9005 7.55466H15.0616V20.4508H17.6602V5.53662H13.8867C10.0856 5.53662 8.0814 7.49938 8.0814 10.3744C8.0814 12.6689 9.17335 14.0235 11.1223 15.4195L7.73584 20.4646H10.5556L14.329 14.8252L13.0159 13.9405C11.4264 12.8624 10.6523 12.0192 10.6523 10.2224C10.6523 8.6328 11.7719 7.55466 13.9005 7.55466Z" fill="black"/>
</svg>
