<svg width="160" height="26" viewBox="0 0 160 26" fill="none" xmlns="http://www.w3.org/2000/svg">
<path d="M31.4375 1.26172V20.8376H34.8457V3.90939H40.9297V20.8376H44.3378V1.26172H31.4375Z" fill="black"/>
<path d="M50.2421 6.66972H47.1437V24.9217H50.4956V19.1757C51.3406 20.4432 52.5799 21.1192 54.0164 21.1192C57.2837 21.1192 59.5371 18.4997 59.5371 13.7396C59.5371 9.00755 57.3401 6.38805 54.1854 6.38805C52.6081 6.38805 51.3124 7.12039 50.4111 8.50055L50.2421 6.66972ZM53.1714 18.4716C51.3969 18.4716 50.4956 17.0351 50.4956 13.7677C50.4956 10.4722 51.4532 9.03572 53.3404 9.03572C55.1712 9.03572 56.0726 10.4722 56.0726 13.7396C56.0726 17.0351 55.1149 18.4716 53.1714 18.4716Z" fill="black"/>
<path d="M72.2303 11.1764C72.2303 7.74005 70.484 6.44439 66.935 6.44439C64.7098 6.44439 62.9635 7.14855 61.9495 7.74005V10.5286C62.8508 9.85255 64.8225 9.12022 66.5406 9.12022C68.1461 9.12022 68.8785 9.68355 68.8785 11.2046V11.9932H68.3433C63.217 11.9932 60.9355 13.6832 60.9355 16.5562C60.9355 19.4292 62.6818 21.0347 65.2732 21.0347C67.2448 21.0347 68.0898 20.3869 68.7376 19.7109H68.8785C68.9067 20.0771 69.0193 20.5559 69.132 20.8376H72.3993C72.2867 19.6827 72.2303 18.5279 72.2303 17.3731V11.1764ZM68.8785 17.4576C68.456 18.0772 67.6673 18.5842 66.4843 18.5842C65.076 18.5842 64.3718 17.7956 64.3718 16.5844C64.3718 14.9789 65.5266 14.3874 68.3996 14.3874H68.8785V17.4576Z" fill="black"/>
<path d="M83.2345 20.8376H87.037L81.6571 13.3171L86.3891 6.66972H83.0091L78.2771 13.3171V6.66972H74.9253V20.8376H78.2771V13.9931L83.2345 20.8376Z" fill="black"/>
<path d="M98.2744 9.31739V6.66972H87.0359V9.31739H90.9792V20.8376H94.331V9.31739H98.2744Z" fill="black"/>
<path d="M100.259 6.66972V20.8376H103.244L108.371 12.0777V20.8376H111.61V6.66972H108.624L103.498 15.4296V6.66972H100.259Z" fill="black"/>
<path d="M122.734 20.8376H126.536L121.156 13.3171L125.888 6.66972H122.508L117.776 13.3171V6.66972H114.425V20.8376H117.776V13.9931L122.734 20.8376Z" fill="black"/>
<path d="M129.485 25.2034C132.612 25.2034 133.767 22.9782 134.724 20.0771L139.147 6.66972H135.907L132.781 17.3167L129.654 6.66972H126.134L131.006 21.4572C130.64 22.1332 130.105 22.5557 129.176 22.5557C128.556 22.5557 128.021 22.3586 127.655 21.9924V24.7246C127.655 24.7246 128.162 25.2034 129.485 25.2034Z" fill="black"/>
<path d="M152.502 20.8376H155.769L155.713 6.66972H151.122L148.051 16.1056L145.291 6.66972H140.418V20.8376H143.263V10.2469L146.333 20.8376H149.065L152.502 10.2469V20.8376Z" fill="black"/>
<path fill-rule="evenodd" clip-rule="evenodd" d="M13 26C20.1797 26 26 20.1797 26 13C26 5.8203 20.1797 0 13 0C5.8203 0 0 5.8203 0 13C0 20.1797 5.8203 26 13 26ZM13.4726 7.55447H14.6337V20.4506H17.2323V5.53643H13.4588C9.65769 5.53643 7.65347 7.49918 7.65347 10.3742C7.65347 12.6687 8.74542 14.0233 10.6944 15.4193L7.30791 20.4644H10.1276L13.9011 14.825L12.588 13.9403C10.9984 12.8622 10.2244 12.019 10.2244 10.2222C10.2244 8.6326 11.344 7.55447 13.4726 7.55447Z" fill="black"/>
</svg>
