<svg width="165" height="28" viewBox="0 0 165 28" fill="none" xmlns="http://www.w3.org/2000/svg">
<path d="M32.896 1.90381V22.077H36.4082V4.63227H42.6778V22.077H46.19V1.90381H32.896Z" fill="black"/>
<path d="M52.2744 7.47684H49.0815V26.2858H52.5356V20.3645C53.4064 21.6707 54.6836 22.3673 56.1639 22.3673C59.5309 22.3673 61.853 19.6678 61.853 14.7624C61.853 9.88601 59.589 7.18658 56.338 7.18658C54.7126 7.18658 53.3774 7.94126 52.4485 9.36354L52.2744 7.47684ZM55.2931 19.6388C53.4645 19.6388 52.5356 18.1585 52.5356 14.7914C52.5356 11.3954 53.5225 9.91504 55.4673 9.91504C57.354 9.91504 58.2828 11.3954 58.2828 14.7624C58.2828 18.1585 57.2959 19.6388 55.2931 19.6388Z" fill="black"/>
<path d="M74.9336 12.121C74.9336 8.57983 73.134 7.24463 69.4767 7.24463C67.1836 7.24463 65.384 7.97028 64.3391 8.57983V11.4534C65.2679 10.7568 67.2997 10.0021 69.0703 10.0021C70.7248 10.0021 71.4795 10.5826 71.4795 12.1501V12.9628H70.928C65.6453 12.9628 63.2941 14.7044 63.2941 17.665C63.2941 20.6257 65.0938 22.2802 67.7642 22.2802C69.796 22.2802 70.6668 21.6126 71.3344 20.916H71.4795C71.5085 21.2933 71.6246 21.7868 71.7408 22.077H75.1078C74.9917 20.8869 74.9336 19.6969 74.9336 18.5068V12.121ZM71.4795 18.5939C71.0441 19.2324 70.2314 19.7549 69.0123 19.7549C67.561 19.7549 66.8353 18.9422 66.8353 17.6941C66.8353 16.0396 68.0254 15.43 70.9861 15.43H71.4795V18.5939Z" fill="black"/>
<path d="M86.2736 22.077H90.1921L84.6481 14.327L89.5245 7.47684H86.0414L81.165 14.327V7.47684H77.7109V22.077H81.165V15.0237L86.2736 22.077Z" fill="black"/>
<path d="M101.772 10.2053V7.47684H90.191V10.2053H94.2546V22.077H97.7088V10.2053H101.772Z" fill="black"/>
<path d="M103.817 7.47684V22.077H106.894L112.177 13.0499V22.077H115.515V7.47684H112.438L107.155 16.504V7.47684H103.817Z" fill="black"/>
<path d="M126.978 22.077H130.897L125.353 14.327L130.229 7.47684H126.746L121.87 14.327V7.47684H118.416V22.077H121.87V15.0237L126.978 22.077Z" fill="black"/>
<path d="M133.936 26.5761C137.158 26.5761 138.348 24.283 139.335 21.2933L143.892 7.47684H140.554L137.332 18.4487L134.11 7.47684H130.482L135.503 22.7156C135.126 23.4122 134.575 23.8476 133.617 23.8476C132.978 23.8476 132.427 23.6444 132.049 23.2671V26.0826C132.049 26.0826 132.572 26.5761 133.936 26.5761Z" fill="black"/>
<path d="M157.655 22.077H161.022L160.964 7.47684H156.232L153.069 17.2006L150.224 7.47684H145.202V22.077H148.134V11.1632L151.298 22.077H154.113L157.655 11.1632V22.077Z" fill="black"/>
<path fill-rule="evenodd" clip-rule="evenodd" d="M13.8967 27.396C21.2955 27.396 27.2934 21.398 27.2934 13.9992C27.2934 6.60045 21.2955 0.602539 13.8967 0.602539C6.49791 0.602539 0.5 6.60045 0.5 13.9992C0.5 21.398 6.49791 27.396 13.8967 27.396ZM14.3834 8.38891H15.5799V21.6786H18.2578V6.30929H14.3692C10.4521 6.30929 8.38671 8.33194 8.38671 11.2947C8.38671 13.6592 9.51198 15.0551 11.5204 16.4938L8.03061 21.6928H10.9364L14.825 15.8813L13.4718 14.9696C11.8338 13.8586 11.0361 12.9897 11.0361 11.138C11.0361 9.49994 12.1899 8.38891 14.3834 8.38891Z" fill="black"/>
</svg>
