<svg width="24" height="24" viewBox="0 0 24 24" fill="none" xmlns="http://www.w3.org/2000/svg">
<path fill-rule="evenodd" clip-rule="evenodd" d="M15 11C13.1362 11 11.5701 9.72523 11.126 8H3C2.44772 8 2 7.55228 2 7C2 6.44772 2.44772 6 3 6H11.126C11.5701 4.27477 13.1362 3 15 3C16.8638 3 18.4299 4.27477 18.874 6H21C21.5523 6 22 6.44772 22 7C22 7.55228 21.5523 8 21 8H18.874C18.4299 9.72523 16.8638 11 15 11ZM3 16C2.44772 16 2 16.4477 2 17C2 17.5523 2.44772 18 3 18H5.12602C5.57006 19.7252 7.13616 21 9 21C10.8638 21 12.4299 19.7252 12.874 18H21C21.5523 18 22 17.5523 22 17C22 16.4477 21.5523 16 21 16H12.874C12.4299 14.2748 10.8638 13 9 13C7.13616 13 5.57006 14.2748 5.12602 16H3ZM15 9C16.1046 9 17 8.10457 17 7C17 5.89543 16.1046 5 15 5C13.8954 5 13 5.89543 13 7C13 8.10457 13.8954 9 15 9ZM11 17C11 18.1046 10.1046 19 9 19C7.89543 19 7 18.1046 7 17C7 15.8954 7.89543 15 9 15C10.1046 15 11 15.8954 11 17Z" fill="#1A1B22"/>
</svg>
